HIERARCHY
ROOT Hips
{
  OFFSET 3.92544 6.39728 0
  CHANNELS 6 Xposition Yposition Zposition Zrotation Xrotation Yrotation
  JOINT BN_Spine_01
  {
    OFFSET 5.06197 -0.168311 0
    CHANNELS 6 Xposition Yposition Zposition Zrotation Xrotation Yrotation
    JOINT BN_Spine_02
    {
      OFFSET 14.8952 0 0
      CHANNELS 6 Xposition Yposition Zposition Zrotation Xrotation Yrotation
      JOINT BN_Spine_03
      {
        OFFSET 14.3786 0 0
        CHANNELS 6 Xposition Yposition Zposition Zrotation Xrotation Yrotation
        JOINT BN__Neck_01
        {
          OFFSET 15.3325 0 0
          CHANNELS 6 Xposition Yposition Zposition Zrotation Xrotation Yrotation
          JOINT BN__Neck_02
          {
            OFFSET 11.0839 0 0
            CHANNELS 6 Xposition Yposition Zposition Zrotation Xrotation Yrotation
            JOINT BN__Neck_R_01
            {
              OFFSET 3.85383 1.1973 3.491
              CHANNELS 6 Xposition Yposition Zposition Zrotation Xrotation Yrotation
              End Site
              {
                OFFSET 0 0 0
              }
            }
            JOINT BN__Neck_L_01
            {
              OFFSET 3.85383 1.1973 -3.49098
              CHANNELS 6 Xposition Yposition Zposition Zrotation Xrotation Yrotation
              End Site
              {
                OFFSET 0 0 0
              }
            }
            JOINT BN_Head_01
            {
              OFFSET 9.67523 0 0
              CHANNELS 6 Xposition Yposition Zposition Zrotation Xrotation Yrotation
              JOINT BN_Mouth_01
              {
                OFFSET 1.08197 -0.588672 0
                CHANNELS 6 Xposition Yposition Zposition Zrotation Xrotation Yrotation
                JOINT BN_Tongue_01
                {
                  OFFSET 2.17792 0.065941 0
                  CHANNELS 6 Xposition Yposition Zposition Zrotation Xrotation Yrotation
                  JOINT BN_Tongue_02
                  {
                    OFFSET 3.80658 -0.000201226 0
                    CHANNELS 6 Xposition Yposition Zposition Zrotation Xrotation Yrotation
                    End Site
                    {
                      OFFSET 0 0 0
                    }
                  }
                }
              }
            }
          }
        }
      }
    }
  }
  JOINT BN_Tail_01
  {
    OFFSET 4.67587 -0.164094 0
    CHANNELS 6 Xposition Yposition Zposition Zrotation Xrotation Yrotation
    JOINT BN_Tail_02
    {
      OFFSET 13.1147 2.52724e-005 0
      CHANNELS 6 Xposition Yposition Zposition Zrotation Xrotation Yrotation
      JOINT BN_Tail_03
      {
        OFFSET 13.4995 9.10759e-005 0
        CHANNELS 6 Xposition Yposition Zposition Zrotation Xrotation Yrotation
        JOINT BN_Tail_04
        {
          OFFSET 13.2851 0 0
          CHANNELS 6 Xposition Yposition Zposition Zrotation Xrotation Yrotation
          JOINT BN_Tail_05
          {
            OFFSET 14.6528 0.000106812 0
            CHANNELS 6 Xposition Yposition Zposition Zrotation Xrotation Yrotation
            JOINT BN_Tail_06
            {
              OFFSET 13.1048 0 0
              CHANNELS 6 Xposition Yposition Zposition Zrotation Xrotation Yrotation
              JOINT BN_Tail_07
              {
                OFFSET 11.869 0.000113964 0
                CHANNELS 6 Xposition Yposition Zposition Zrotation Xrotation Yrotation
                End Site
                {
                  OFFSET 0 0 0
                }
              }
            }
          }
        }
      }
    }
  }
}
MOTION
Frames:	10
Frame Time:	0.0333333
-5.67023 3.97237 -1.97317e-012 1.21285 -5.23811 -76.9279 5.06197 -0.168311 7.26974e-012 2.71721 -0.332943 85.6703 14.8952 -2.38419e-007 -1.90735e-006 71.014 -5.23368 56.1516 14.3786 -3.55272e-015 9.53674e-007 84.0359 -62.4442 -16.2905 15.3325 -1.24345e-014 0 -4.28789 -5.32001 -7.96523 11.0839 -1.90735e-006 -5.96046e-008 -91.1342 -0.383874 -1.4456 4.91425 1.00589 5.29335 -87.314 -13.605 -72.5979 4.99161 1.22228 -4.54578 93.2246 -18.421 99.6848 9.67523 -3.81471e-006 0 -40.2592 -3.4313 -5.68577 1.08197 -0.588671 1.85408e-008 0.584023 5.89821e-009 1.74982e-010 1.45935 0.207778 -2.7e-008 6.09141 2.34837e-007 -4.98031e-008 3.04526 0.151089 3.02057e-009 -3.03588 -1.65988e-007 1.91747e-007 4.67587 -0.164094 7.2724e-012 179.169 0.167489 -16.6475 13.1147 -3.9968e-015 1.19209e-007 -5.70346 -2.08106 61.7265 13.4995 -2.38419e-007 -1.77636e-015 -5.75957 2.84713 60.0114 13.2851 -2.38419e-007 -9.53674e-007 -2.26714 -1.97393 52.5605 14.6528 3.76144e-013 3.8147e-006 -1.7073 -1.95669 46.04 13.1048 -1.1921e-007 0 -0.923159 1.83049 46.2845 11.869 3.15303e-014 3.8147e-006 -2.74331 8.6852 19.4892 
-5.48733 3.97237 -2.40489e-012 1.1676 -5.25193 -77.4313 5.06197 -0.168311 7.27507e-012 3.0187 -0.388877 83.993 14.8952 -2.38419e-007 -1.90735e-006 71.3894 -5.26466 56.2852 14.3786 7.10543e-015 9.53674e-007 82.5661 -62.5178 -17.1356 15.3325 -1.77636e-015 -2.66454e-015 -1.09585 -4.42444 -9.91746 11.0839 -1.90735e-006 -5.96046e-008 -92.2907 -0.356966 -1.43145 4.93063 0.986064 5.35715 -87.314 -13.605 -72.5979 5.01365 1.21193 -4.61011 93.2247 -18.4209 99.6849 9.67523 -3.81471e-006 3.55271e-015 -42.0339 -3.01279 -5.3657 1.08197 -0.588671 1.64815e-008 0.601618 1.09377e-007 1.0015e-005 1.45935 0.207775 -2.6267e-008 6.09141 2.17457e-007 -7.12533e-008 3.04525 0.151089 3.59643e-009 -3.03588 -6.8449e-007 1.01013e-005 4.67587 -0.164094 7.27418e-012 179.169 0.169642 -16.3584 13.1147 2.66454e-015 1.19209e-007 -5.71373 -2.10624 61.4357 13.4995 -2.38419e-007 7.10543e-015 -5.76452 2.83788 60.0572 13.2851 -2.38419e-007 -9.53674e-007 -2.24838 -1.96822 52.2663 14.6528 3.75477e-013 3.8147e-006 -1.68363 -1.96858 45.6419 13.1048 -1.1921e-007 0 -0.998246 1.88481 47.333 11.869 3.35287e-014 3.8147e-006 -3.27229 8.76843 22.7017 
-5.28858 3.97237 -1.33413e-012 1.13115 -5.2586 -77.8263 5.06197 -0.168311 7.27418e-012 3.04599 -0.429182 81.6164 14.8952 -2.38419e-007 -1.90735e-006 70.7028 -4.93006 56.3387 14.3786 5.32907e-015 9.53674e-007 81.1637 -62.3912 -17.2652 15.3325 -1.24345e-014 -3.55271e-015 2.25493 -3.6777 -11.5594 11.0839 -1.90735e-006 -5.96046e-008 -93.0217 -0.319481 -1.39375 4.94531 0.968302 5.41431 -87.314 -13.605 -72.5979 5.03339 1.20265 -4.66776 93.2246 -18.421 99.6847 9.67523 -3.81471e-006 7.10543e-015 -45.4203 -2.06591 -4.62664 1.08197 -0.588671 1.63425e-008 0.612 1.05767e-007 1.00146e-005 1.45935 0.207773 -2.61984e-008 6.09141 1.64382e-007 -7.32641e-008 3.04525 0.151087 3.78602e-009 -3.03588 -6.59119e-007 1.01052e-005 4.67587 -0.164094 7.27418e-012 179.168 0.171739 -16.2673 13.1147 4.44089e-016 1.19209e-007 -5.71554 -2.10938 61.4034 13.4995 -2.38419e-007 -3.55271e-015 -5.77421 2.81857 60.2207 13.2851 -2.38419e-007 -9.53674e-007 -2.21593 -1.95863 52.0777 14.6528 3.70148e-013 3.8147e-006 -1.66271 -1.98256 45.3077 13.1048 -1.1921e-007 -3.55271e-015 -1.06708 1.90881 48.6844 11.869 3.15303e-014 3.8147e-006 -3.85203 8.75034 26.1675 
-5.06763 3.97237 -1.39901e-012 1.10417 -5.26579 -78.1238 5.06197 -0.168311 7.27507e-012 2.73673 -0.417756 78.3799 14.8952 -2.38419e-007 -1.90735e-006 68.7798 -4.15696 56.3113 14.3786 5.32907e-015 9.53674e-007 79.8513 -61.9905 -16.5327 15.3325 -1.42109e-014 -1.77636e-015 5.81551 -3.09382 -12.8456 11.0839 -1.90735e-006 -5.96046e-008 -93.2386 -0.264411 -1.3236 4.96013 0.950362 5.47203 -87.314 -13.605 -72.5979 5.05333 1.19328 -4.72597 93.2246 -18.421 99.6847 9.67523 -3.81471e-006 -1.77636e-015 -49.3554 -0.956711 -3.70765 1.08197 -0.588671 2.00113e-008 0.618994 1.03958e-007 1.00183e-005 1.45936 0.207775 -2.74822e-008 6.09141 1.25504e-007 -3.56955e-008 3.04525 0.151087 2.96024e-009 -3.03588 -6.36233e-007 1.00886e-005 4.67587 -0.164094 7.27507e-012 179.169 0.173738 -16.4276 13.1147 -2.22045e-015 1.19209e-007 -5.70619 -2.08984 61.7099 13.4995 -2.38419e-007 -5.32907e-015 -5.78863 2.78837 60.5395 13.2851 -2.38419e-007 -9.53674e-007 -2.17136 -1.93916 52.0198 14.6528 3.65485e-013 3.8147e-006 -1.64761 -1.98956 45.0464 13.1048 -1.1921e-007 -3.55271e-015 -1.12802 1.89265 50.473 11.869 2.62013e-014 3.8147e-006 -4.49251 8.59955 30.0714 
-4.82344 3.97237 -1.5579e-012 1.08673 -5.26623 -78.3069 5.06197 -0.168311 7.27063e-012 2.01403 -0.293253 74.1849 14.8952 -2.38419e-007 -1.90735e-006 65.4435 -2.85561 56.2275 14.3786 8.88179e-015 9.53674e-007 78.6731 -61.175 -14.7738 15.3325 -7.10544e-015 -1.77636e-015 9.51283 -2.7179 -13.6836 11.0839 -1.90735e-006 -5.96046e-008 -92.8124 -0.184568 -1.19716 4.97347 0.934225 5.52398 -87.314 -13.605 -72.5979 5.07127 1.18486 -4.77836 93.2246 -18.421 99.6847 9.67523 -3.81471e-006 -3.55271e-015 -52.6372 -0.0938204 -2.87945 1.08197 -0.588671 2.76091e-008 0.625988 1.11586e-007 1.00262e-005 1.45936 0.207775 -3.01869e-008 6.09141 1.62791e-007 4.34511e-008 3.04525 0.15109 9.06269e-010 -3.03589 -6.4527e-007 1.00473e-005 4.67587 -0.164094 7.26974e-012 179.17 0.17574 -16.9044 13.1147 8.88178e-016 1.19209e-007 -5.67909 -2.03879 62.4389 13.4995 -2.38419e-007 -3.55271e-015 -5.811 2.74045 61.0603 13.2851 -2.38419e-007 -9.53674e-007 -2.11395 -1.90981 52.1207 14.6528 3.59934e-013 3.8147e-006 -1.63542 -1.9961 44.8793 13.1048 -1.1921e-007 3.55271e-015 -1.18213 1.82938 52.8136 11.869 2.30926e-014 3.8147e-006 -5.18791 8.29123 34.5266 
-4.56327 3.97237 -1.15971e-012 1.08098 -5.2663 -78.3672 5.06197 -0.168311 7.27507e-012 0.807419 0.042172 69.0974 14.8952 -2.38419e-007 -1.90735e-006 60.6881 -1.01184 56.1455 14.3786 1.06581e-014 9.53674e-007 77.5933 -59.7567 -12.0326 15.3325 -1.06582e-014 -3.55271e-015 13.1621 -2.58875 -13.9781 11.0839 -1.90735e-006 -5.96046e-008 -91.6199 -0.0752418 -0.975481 4.98519 0.92005 5.56964 -87.314 -13.605 -72.5979 5.08704 1.17746 -4.8244 93.2246 -18.421 99.6847 9.67523 -3.81471e-006 1.77636e-015 -53.9919 0.0918057 -2.42999 1.08197 -0.588671 3.79489e-008 0.62596 1.28037e-007 1.00372e-005 1.45936 0.207773 -3.38958e-008 6.09141 2.82987e-007 1.51985e-007 3.04525 0.151087 -2.09243e-009 -3.03589 -6.9034e-007 9.98709e-006 4.67587 -0.164094 7.27507e-012 179.174 0.177213 -17.7294 13.1147 1.77636e-015 1.19209e-007 -5.63758 -1.95883 63.6298 13.4995 -2.38419e-007 5.32907e-015 -5.84058 2.67503 61.7915 13.2851 -2.38419e-007 -9.53674e-007 -2.04226 -1.87057 52.4072 14.6528 3.50164e-013 3.8147e-006 -1.63195 -1.99712 44.8193 13.1048 -1.1921e-007 0 -1.22007 1.71686 55.7191 11.869 1.59872e-014 3.8147e-006 -5.89831 7.80375 39.4804 
-3.38304 3.97237 -9.29186e-013 2.24481 -4.88965 -65.2869 5.06197 -0.168311 7.27329e-012 -2.35074 1.3631 57.8109 14.8952 -2.38419e-007 -1.90735e-006 54.0257 -0.644166 45.7312 14.3786 3.55272e-015 9.53674e-007 70.5889 -52.9018 -6.25627 15.3325 0 0 16.1589 -3.77298 -10.2876 11.0839 -1.90735e-006 -5.96046e-008 -80.343 0.695328 0.504617 4.99542 0.907662 5.60945 -87.314 -13.605 -72.5979 5.1008 1.17098 -4.86453 93.2246 -18.421 99.6847 9.67523 -3.81471e-006 -1.06581e-014 -48.0124 -0.889652 -1.26909 1.08197 -0.588671 6.28083e-008 -11.3388 -6.2221e-007 -6.06623e-007 1.45936 0.207773 -4.01329e-008 6.09141 5.04246e-007 1.00668e-006 3.04526 0.15109 -6.99658e-009 -3.03589 -7.39559e-007 9.8886e-006 4.67587 -0.164094 7.27418e-012 179.189 0.214511 -17.9695 13.1147 3.55271e-015 1.19209e-007 -5.69483 -2.0034 60.1845 13.4995 -2.38419e-007 -7.10543e-015 -5.71658 2.92875 59.4408 13.2851 -2.38419e-007 -9.53674e-007 -1.95235 -1.82796 52.6307 14.6528 4.54747e-013 3.8147e-006 -1.65444 -2.02097 44.9666 13.1048 -1.19209e-007 0 -0.222762 1.49446 47.2789 11.869 6.4615e-014 3.8147e-006 -5.75227 7.83117 37.5834 
-1.03927 3.97237 -2.69422e-013 4.33038 -3.19125 -36.3058 5.06197 -0.168311 7.27518e-012 -6.27599 4.77278 39.4962 14.8952 -2.38419e-007 -1.90735e-006 44.9014 -3.76924 22.6595 14.3786 1.24345e-014 9.53674e-007 53.1936 -39.2799 -0.046411 15.3325 0 -5.32907e-015 18.0694 -6.4286 -2.06129 11.0839 -1.90735e-006 -5.96046e-008 -57.4352 2.31976 3.37488 5.00387 0.89747 5.64225 -87.314 -13.605 -72.5979 5.11216 1.16564 -4.89762 93.2246 -18.4209 99.6848 9.67523 -3.81471e-006 -3.55271e-015 -34.4577 -2.67817 1.08784 1.08197 -0.588671 3.16046e-008 -37.934 -4.89889e-006 7.84426e-006 1.45936 0.20777 -3.61016e-008 6.09141 -6.41343e-008 6.7355e-007 3.04526 0.15109 -2.64345e-009 -3.03589 -4.81536e-007 9.97603e-006 4.67587 -0.164094 7.27607e-012 179.216 0.306558 -16.8769 13.1147 0 1.19209e-007 -5.85366 -2.02519 50.0535 13.4995 -2.38419e-007 -7.10543e-015 -5.30551 3.61535 52.8741 13.2851 -2.38419e-007 -9.53674e-007 -1.84435 -1.79234 52.5463 14.6528 5.63105e-013 3.8147e-006 -1.71614 -2.08281 45.3844 13.1048 -1.19209e-007 -3.55271e-015 0.862072 1.08496 37.8354 11.869 -3.12861e-013 3.8147e-006 -4.62148 8.31409 27.4985 
1.38497 3.97237 -1.71149e-013 5.32382 -0.751678 -7.99754 5.06197 -0.168311 7.27601e-012 -7.84686 8.85939 21.0705 14.8952 -2.38419e-007 -1.90735e-006 33.5559 -7.59668 -0.0636945 14.3786 1.06581e-014 9.53674e-007 33.7285 -24.981 4.52374 15.3325 -1.06581e-014 -3.55271e-015 18.9119 -8.92907 6.07832 11.0839 -1.90735e-006 -5.96046e-008 -35.1709 4.02586 6.12312 5.01011 0.889879 5.66639 -87.314 -13.605 -72.5979 5.12052 1.16165 -4.92201 93.2247 -18.4209 99.6849 9.67524 -3.8147e-006 -5.32907e-015 -20.6851 -4.35396 3.37168 1.08197 -0.58867 1.26954e-008 -64.0128 -1.06394e-005 5.95197e-006 1.45936 0.207773 -2.25577e-008 6.09141 -1.30496e-006 -1.40706e-007 3.04525 0.15109 1.03042e-008 -3.03589 4.38958e-008 1.02361e-005 4.67587 -0.164094 7.2759e-012 179.24 0.422814 -14.921 13.1147 8.88178e-016 1.19209e-007 -5.90926 -1.74857 38.4752 13.4995 -2.38419e-007 3.55271e-015 -4.7322 4.33194 45.7438 13.2851 -2.38419e-007 -9.53674e-007 -1.72576 -1.75657 52.1885 14.6528 6.70797e-013 3.8147e-006 -1.80955 -2.17383 45.9916 13.1048 -1.19209e-007 -3.55271e-015 0.787975 1.65699 44.8532 11.869 -6.26166e-014 3.8147e-006 -3.41893 8.49714 16.8398 
2.95058 3.97237 -2.72243e-013 5.35041 0.465882 4.97792 5.06197 -0.168311 7.27629e-012 -7.10071 11.0666 8.34039 14.8952 -2.38419e-007 -1.90735e-006 26.568 -7.54207 -10.5623 14.3786 8.88179e-016 9.53674e-007 23.1406 -15.4894 7.98793 15.3325 0 -1.77636e-015 17.9992 -10.0007 9.85431 11.0839 -1.90735e-006 -5.96046e-008 -24.2348 5.17307 7.38009 5.01403 0.885147 5.68173 -87.314 -13.605 -72.5979 5.12579 1.15919 -4.93745 93.2246 -18.421 99.6847 9.67524 -3.8147e-006 -4.44089e-015 -13.4981 -5.10902 4.41623 1.08197 -0.58867 2.41493e-008 -75.9805 -1.24879e-005 3.02889e-006 1.45935 0.20777 -2.06584e-008 6.09141 -1.421e-006 -2.62712e-007 3.04525 0.151084 1.19645e-008 -3.03588 7.61382e-008 1.02694e-005 4.67587 -0.164094 7.27629e-012 179.248 0.538569 -12.4549 13.1147 1.33227e-015 1.19209e-007 -5.84237 -1.42269 30.0179 13.4995 -2.38419e-007 -8.88178e-016 -4.30353 4.75456 41.2919 13.2851 -2.38419e-007 -9.53674e-007 -1.59701 -1.72741 51.5868 14.6528 8.72857e-013 3.8147e-006 -1.9295 -2.28951 46.7466 13.1048 -1.19209e-007 3.55271e-015 0.391068 2.12793 51.9517 11.869 -3.4528e-014 3.8147e-006 -2.85842 8.47169 11.7086 
